<svg preserveAspectRatio="none" width="100%" height="100%" overflow="visible" style="display: block;" viewBox="0 0 15.6238 12.5513" fill="none" xmlns="http://www.w3.org/2000/svg">
<path id="Vector 1877" d="M0.85221 5.42343C0.381547 5.42343 0 5.80498 0 6.27564C0 6.7463 0.381547 7.12785 0.85221 7.12785V6.27564V5.42343ZM15.3742 6.87824C15.707 6.54543 15.707 6.00584 15.3742 5.67304L9.95081 0.249607C9.618 -0.0832019 9.07841 -0.0832019 8.7456 0.249607C8.41279 0.582415 8.41279 1.122 8.7456 1.45481L13.5664 6.27564L8.7456 11.0965C8.41279 11.4293 8.41279 11.9689 8.7456 12.3017C9.07841 12.6345 9.618 12.6345 9.95081 12.3017L15.3742 6.87824ZM0.85221 6.27564V7.12785H14.7716V6.27564V5.42343H0.85221V6.27564Z" fill="var(--stroke-0, #252525)"/>
</svg>
