<svg preserveAspectRatio="none" width="100%" height="100%" overflow="visible" style="display: block;" viewBox="0 0 1442 902" fill="none" xmlns="http://www.w3.org/2000/svg">
<path id="Vector" d="M85.7059 1H1V76M85.7059 1V76M85.7059 1H170.412M85.7059 76H1M85.7059 76H170.412M85.7059 76V151M1 76V151M170.412 1V76M170.412 1H255.118M170.412 76H255.118M170.412 76V151M255.118 1V76M255.118 1H339.824M255.118 76H339.824M255.118 76V151M339.824 1V76M339.824 1H424.529M339.824 76H424.529M339.824 76V151M424.529 1V76M424.529 1H509.235M424.529 76H509.235M424.529 76V151M509.235 1V76M509.235 1H593.941M509.235 76H593.941M509.235 76V151M593.941 1V76M593.941 1H678.647M593.941 76H678.647M593.941 76V151M678.647 1V76M678.647 1H763.353M678.647 76H763.353M678.647 76V151M763.353 1V76M763.353 1H848.059M763.353 76H848.059M763.353 76V151M848.059 1V76M848.059 1H932.765M848.059 76H932.765M848.059 76V151M932.765 1V76M932.765 1H1017.47M932.765 76H1017.47M932.765 76V151M1017.47 1V76M1017.47 1H1102.18M1017.47 76H1102.18M1017.47 76V151M1102.18 1V76M1102.18 1H1186.88M1102.18 76H1186.88M1102.18 76V151M1186.88 1V76M1186.88 1H1271.59M1186.88 76H1271.59M1186.88 76V151M1271.59 1V76M1271.59 1H1356.29M1271.59 76H1356.29M1271.59 76V151M1356.29 1V76M1356.29 1H1441V76M1356.29 76H1441M1356.29 76V151M1441 76V151M85.7059 151H1M85.7059 151H170.412M85.7059 151V226M1 151V226M170.412 151H255.118M170.412 151V226M255.118 151H339.824M255.118 151V226M339.824 151H424.529M339.824 151V226M424.529 151H509.235M424.529 151V226M509.235 151H593.941M509.235 151V226M593.941 151H678.647M593.941 151V226M678.647 151H763.353M678.647 151V226M763.353 151H848.059M763.353 151V226M848.059 151H932.765M848.059 151V226M932.765 151H1017.47M932.765 151V226M1017.47 151H1102.18M1017.47 151V226M1102.18 151H1186.88M1102.18 151V226M1186.88 151H1271.59M1186.88 151V226M1271.59 151H1356.29M1271.59 151V226M1356.29 151H1441M1356.29 151V226M1441 151V226M85.7059 226H1M85.7059 226H170.412M85.7059 226V301M1 226V301M170.412 226H255.118M170.412 226V301M255.118 226H339.824M255.118 226V301M339.824 226H424.529M339.824 226V301M424.529 226H509.235M424.529 226V301M509.235 226H593.941M509.235 226V301M593.941 226H678.647M593.941 226V301M678.647 226H763.353M678.647 226V301M763.353 226H848.059M763.353 226V301M848.059 226H932.765M848.059 226V301M932.765 226H1017.47M932.765 226V301M1017.47 226H1102.18M1017.47 226V301M1102.18 226H1186.88M1102.18 226V301M1186.88 226H1271.59M1186.88 226V301M1271.59 226H1356.29M1271.59 226V301M1356.29 226H1441M1356.29 226V301M1441 226V301M85.7059 301H1M85.7059 301H170.412M85.7059 301V376M1 301V376M170.412 301H255.118M170.412 301V376M255.118 301H339.824M255.118 301V376M339.824 301H424.529M339.824 301V376M424.529 301H509.235M424.529 301V376M509.235 301H593.941M509.235 301V376M593.941 301H678.647M593.941 301V376M678.647 301H763.353M678.647 301V376M763.353 301H848.059M763.353 301V376M848.059 301H932.765M848.059 301V376M932.765 301H1017.47M932.765 301V376M1017.47 301H1102.18M1017.47 301V376M1102.18 301H1186.88M1102.18 301V376M1186.88 301H1271.59M1186.88 301V376M1271.59 301H1356.29M1271.59 301V376M1356.29 301H1441M1356.29 301V376M1441 301V376M85.7059 376H1M85.7059 376H170.412M85.7059 376V451M1 376V451M170.412 376H255.118M170.412 376V451M255.118 376H339.824M255.118 376V451M339.824 376H424.529M339.824 376V451M424.529 376H509.235M424.529 376V451M509.235 376H593.941M509.235 376V451M593.941 376H678.647M593.941 376V451M678.647 376H763.353M678.647 376V451M763.353 376H848.059M763.353 376V451M848.059 376H932.765M848.059 376V451M932.765 376H1017.47M932.765 376V451M1017.47 376H1102.18M1017.47 376V451M1102.18 376H1186.88M1102.18 376V451M1186.88 376H1271.59M1186.88 376V451M1271.59 376H1356.29M1271.59 376V451M1356.29 376H1441M1356.29 376V451M1441 376V451M85.7059 451H1M85.7059 451H170.412M85.7059 451V526M1 451V526M170.412 451H255.118M170.412 451V526M255.118 451H339.824M255.118 451V526M339.824 451H424.529M339.824 451V526M424.529 451H509.235M424.529 451V526M509.235 451H593.941M509.235 451V526M593.941 451H678.647M593.941 451V526M678.647 451H763.353M678.647 451V526M763.353 451H848.059M763.353 451V526M848.059 451H932.765M848.059 451V526M932.765 451H1017.47M932.765 451V526M1017.47 451H1102.18M1017.47 451V526M1102.18 451H1186.88M1102.18 451V526M1186.88 451H1271.59M1186.88 451V526M1271.59 451H1356.29M1271.59 451V526M1356.29 451H1441M1356.29 451V526M1441 451V526M85.7059 526H1M85.7059 526H170.412M85.7059 526V601M1 526V601M170.412 526H255.118M170.412 526V601M255.118 526H339.824M255.118 526V601M339.824 526H424.529M339.824 526V601M424.529 526H509.235M424.529 526V601M509.235 526H593.941M509.235 526V601M593.941 526H678.647M593.941 526V601M678.647 526H763.353M678.647 526V601M763.353 526H848.059M763.353 526V601M848.059 526H932.765M848.059 526V601M932.765 526H1017.47M932.765 526V601M1017.47 526H1102.18M1017.47 526V601M1102.18 526H1186.88M1102.18 526V601M1186.88 526H1271.59M1186.88 526V601M1271.59 526H1356.29M1271.59 526V601M1356.29 526H1441M1356.29 526V601M1441 526V601M85.7059 601H1M85.7059 601H170.412M85.7059 601V676M1 601V676M170.412 601H255.118M170.412 601V676M255.118 601H339.824M255.118 601V676M339.824 601H424.529M339.824 601V676M424.529 601H509.235M424.529 601V676M509.235 601H593.941M509.235 601V676M593.941 601H678.647M593.941 601V676M678.647 601H763.353M678.647 601V676M763.353 601H848.059M763.353 601V676M848.059 601H932.765M848.059 601V676M932.765 601H1017.47M932.765 601V676M1017.47 601H1102.18M1017.47 601V676M1102.18 601H1186.88M1102.18 601V676M1186.88 601H1271.59M1186.88 601V676M1271.59 601H1356.29M1271.59 601V676M1356.29 601H1441M1356.29 601V676M1441 601V676M85.7059 676H1M85.7059 676H170.412M85.7059 676V751M1 676V751M170.412 676H255.118M170.412 676V751M255.118 676H339.824M255.118 676V751M339.824 676H424.529M339.824 676V751M424.529 676H509.235M424.529 676V751M509.235 676H593.941M509.235 676V751M593.941 676H678.647M593.941 676V751M678.647 676H763.353M678.647 676V751M763.353 676H848.059M763.353 676V751M848.059 676H932.765M848.059 676V751M932.765 676H1017.47M932.765 676V751M1017.47 676H1102.18M1017.47 676V751M1102.18 676H1186.88M1102.18 676V751M1186.88 676H1271.59M1186.88 676V751M1271.59 676H1356.29M1271.59 676V751M1356.29 676H1441M1356.29 676V751M1441 676V751M85.7059 751H1M85.7059 751H170.412M85.7059 751V826M1 751V826M170.412 751H255.118M170.412 751V826M255.118 751H339.824M255.118 751V826M339.824 751H424.529M339.824 751V826M424.529 751H509.235M424.529 751V826M509.235 751H593.941M509.235 751V826M593.941 751H678.647M593.941 751V826M678.647 751H763.353M678.647 751V826M763.353 751H848.059M763.353 751V826M848.059 751H932.765M848.059 751V826M932.765 751H1017.47M932.765 751V826M1017.47 751H1102.18M1017.47 751V826M1102.18 751H1186.88M1102.18 751V826M1186.88 751H1271.59M1186.88 751V826M1271.59 751H1356.29M1271.59 751V826M1356.29 751H1441M1356.29 751V826M1441 751V826M85.7059 826H1M85.7059 826H170.412M85.7059 826V901M1 826V901H85.7059M170.412 826H255.118M170.412 826V901M255.118 826H339.824M255.118 826V901M339.824 826H424.529M339.824 826V901M424.529 826H509.235M424.529 826V901M509.235 826H593.941M509.235 826V901M593.941 826H678.647M593.941 826V901M678.647 826H763.353M678.647 826V901M763.353 826H848.059M763.353 826V901M848.059 826H932.765M848.059 826V901M932.765 826H1017.47M932.765 826V901M1017.47 826H1102.18M1017.47 826V901M1102.18 826H1186.88M1102.18 826V901M1186.88 826H1271.59M1186.88 826V901M1271.59 826H1356.29M1271.59 826V901M1356.29 826H1441M1356.29 826V901M1441 826V901H1356.29M85.7059 901H170.412M170.412 901H255.118M255.118 901H339.824M339.824 901H424.529M424.529 901H509.235M509.235 901H593.941M593.941 901H678.647M678.647 901H763.353M763.353 901H848.059M848.059 901H932.765M932.765 901H1017.47M1017.47 901H1102.18M1102.18 901H1186.88M1186.88 901H1271.59M1271.59 901H1356.29" stroke="url(#paint0_radial_0_50)" stroke-width="2"/>
<defs>
<radialGradient id="paint0_radial_0_50" cx="0" cy="0" r="1" gradientUnits="userSpaceOnUse" gradientTransform="translate(721.482 1.00001) rotate(90) scale(480 803.896)">
<stop stop-color="#C0C0C0" stop-opacity="0"/>
<stop offset="0.5" stop-color="#C0C0C0" stop-opacity="0.1"/>
<stop offset="1" stop-color="#C0C0C0" stop-opacity="0"/>
</radialGradient>
</defs>
</svg>
