<svg preserveAspectRatio="none" width="100%" height="100%" overflow="visible" style="display: block;" viewBox="0 0 392 246" fill="none" xmlns="http://www.w3.org/2000/svg">
<path id="Vector" d="M23.9412 1H1V21.3333M23.9412 1V21.3333M23.9412 1H46.8824M23.9412 21.3333H1M23.9412 21.3333H46.8824M23.9412 21.3333V41.6667M1 21.3333V41.6667M46.8824 1V21.3333M46.8824 1H69.8235M46.8824 21.3333H69.8235M46.8824 21.3333V41.6667M69.8235 1V21.3333M69.8235 1H92.7647M69.8235 21.3333H92.7647M69.8235 21.3333V41.6667M92.7647 1V21.3333M92.7647 1H115.706M92.7647 21.3333H115.706M92.7647 21.3333V41.6667M115.706 1V21.3333M115.706 1H138.647M115.706 21.3333H138.647M115.706 21.3333V41.6667M138.647 1V21.3333M138.647 1H161.588M138.647 21.3333H161.588M138.647 21.3333V41.6667M161.588 1V21.3333M161.588 1H184.529M161.588 21.3333H184.529M161.588 21.3333V41.6667M184.529 1V21.3333M184.529 1H207.471M184.529 21.3333H207.471M184.529 21.3333V41.6667M207.471 1V21.3333M207.471 1H230.412M207.471 21.3333H230.412M207.471 21.3333V41.6667M230.412 1V21.3333M230.412 1H253.353M230.412 21.3333H253.353M230.412 21.3333V41.6667M253.353 1V21.3333M253.353 1H276.294M253.353 21.3333H276.294M253.353 21.3333V41.6667M276.294 1V21.3333M276.294 1H299.235M276.294 21.3333H299.235M276.294 21.3333V41.6667M299.235 1V21.3333M299.235 1H322.176M299.235 21.3333H322.176M299.235 21.3333V41.6667M322.176 1V21.3333M322.176 1H345.118M322.176 21.3333H345.118M322.176 21.3333V41.6667M345.118 1V21.3333M345.118 1H368.059M345.118 21.3333H368.059M345.118 21.3333V41.6667M368.059 1V21.3333M368.059 1H391V21.3333M368.059 21.3333H391M368.059 21.3333V41.6667M391 21.3333V41.6667M23.9412 41.6667H1M23.9412 41.6667H46.8824M23.9412 41.6667V62M1 41.6667V62M46.8824 41.6667H69.8235M46.8824 41.6667V62M69.8235 41.6667H92.7647M69.8235 41.6667V62M92.7647 41.6667H115.706M92.7647 41.6667V62M115.706 41.6667H138.647M115.706 41.6667V62M138.647 41.6667H161.588M138.647 41.6667V62M161.588 41.6667H184.529M161.588 41.6667V62M184.529 41.6667H207.471M184.529 41.6667V62M207.471 41.6667H230.412M207.471 41.6667V62M230.412 41.6667H253.353M230.412 41.6667V62M253.353 41.6667H276.294M253.353 41.6667V62M276.294 41.6667H299.235M276.294 41.6667V62M299.235 41.6667H322.176M299.235 41.6667V62M322.176 41.6667H345.118M322.176 41.6667V62M345.118 41.6667H368.059M345.118 41.6667V62M368.059 41.6667H391M368.059 41.6667V62M391 41.6667V62M23.9412 62H1M23.9412 62H46.8824M23.9412 62V82.3333M1 62V82.3333M46.8824 62H69.8235M46.8824 62V82.3333M69.8235 62H92.7647M69.8235 62V82.3333M92.7647 62H115.706M92.7647 62V82.3333M115.706 62H138.647M115.706 62V82.3333M138.647 62H161.588M138.647 62V82.3333M161.588 62H184.529M161.588 62V82.3333M184.529 62H207.471M184.529 62V82.3333M207.471 62H230.412M207.471 62V82.3333M230.412 62H253.353M230.412 62V82.3333M253.353 62H276.294M253.353 62V82.3333M276.294 62H299.235M276.294 62V82.3333M299.235 62H322.176M299.235 62V82.3333M322.176 62H345.118M322.176 62V82.3333M345.118 62H368.059M345.118 62V82.3333M368.059 62H391M368.059 62V82.3333M391 62V82.3333M23.9412 82.3333H1M23.9412 82.3333H46.8824M23.9412 82.3333V102.667M1 82.3333V102.667M46.8824 82.3333H69.8235M46.8824 82.3333V102.667M69.8235 82.3333H92.7647M69.8235 82.3333V102.667M92.7647 82.3333H115.706M92.7647 82.3333V102.667M115.706 82.3333H138.647M115.706 82.3333V102.667M138.647 82.3333H161.588M138.647 82.3333V102.667M161.588 82.3333H184.529M161.588 82.3333V102.667M184.529 82.3333H207.471M184.529 82.3333V102.667M207.471 82.3333H230.412M207.471 82.3333V102.667M230.412 82.3333H253.353M230.412 82.3333V102.667M253.353 82.3333H276.294M253.353 82.3333V102.667M276.294 82.3333H299.235M276.294 82.3333V102.667M299.235 82.3333H322.176M299.235 82.3333V102.667M322.176 82.3333H345.118M322.176 82.3333V102.667M345.118 82.3333H368.059M345.118 82.3333V102.667M368.059 82.3333H391M368.059 82.3333V102.667M391 82.3333V102.667M23.9412 102.667H1M23.9412 102.667H46.8824M23.9412 102.667V123M1 102.667V123M46.8824 102.667H69.8235M46.8824 102.667V123M69.8235 102.667H92.7647M69.8235 102.667V123M92.7647 102.667H115.706M92.7647 102.667V123M115.706 102.667H138.647M115.706 102.667V123M138.647 102.667H161.588M138.647 102.667V123M161.588 102.667H184.529M161.588 102.667V123M184.529 102.667H207.471M184.529 102.667V123M207.471 102.667H230.412M207.471 102.667V123M230.412 102.667H253.353M230.412 102.667V123M253.353 102.667H276.294M253.353 102.667V123M276.294 102.667H299.235M276.294 102.667V123M299.235 102.667H322.176M299.235 102.667V123M322.176 102.667H345.118M322.176 102.667V123M345.118 102.667H368.059M345.118 102.667V123M368.059 102.667H391M368.059 102.667V123M391 102.667V123M23.9412 123H1M23.9412 123H46.8824M23.9412 123V143.333M1 123V143.333M46.8824 123H69.8235M46.8824 123V143.333M69.8235 123H92.7647M69.8235 123V143.333M92.7647 123H115.706M92.7647 123V143.333M115.706 123H138.647M115.706 123V143.333M138.647 123H161.588M138.647 123V143.333M161.588 123H184.529M161.588 123V143.333M184.529 123H207.471M184.529 123V143.333M207.471 123H230.412M207.471 123V143.333M230.412 123H253.353M230.412 123V143.333M253.353 123H276.294M253.353 123V143.333M276.294 123H299.235M276.294 123V143.333M299.235 123H322.176M299.235 123V143.333M322.176 123H345.118M322.176 123V143.333M345.118 123H368.059M345.118 123V143.333M368.059 123H391M368.059 123V143.333M391 123V143.333M23.9412 143.333H1M23.9412 143.333H46.8824M23.9412 143.333V163.667M1 143.333V163.667M46.8824 143.333H69.8235M46.8824 143.333V163.667M69.8235 143.333H92.7647M69.8235 143.333V163.667M92.7647 143.333H115.706M92.7647 143.333V163.667M115.706 143.333H138.647M115.706 143.333V163.667M138.647 143.333H161.588M138.647 143.333V163.667M161.588 143.333H184.529M161.588 143.333V163.667M184.529 143.333H207.471M184.529 143.333V163.667M207.471 143.333H230.412M207.471 143.333V163.667M230.412 143.333H253.353M230.412 143.333V163.667M253.353 143.333H276.294M253.353 143.333V163.667M276.294 143.333H299.235M276.294 143.333V163.667M299.235 143.333H322.176M299.235 143.333V163.667M322.176 143.333H345.118M322.176 143.333V163.667M345.118 143.333H368.059M345.118 143.333V163.667M368.059 143.333H391M368.059 143.333V163.667M391 143.333V163.667M23.9412 163.667H1M23.9412 163.667H46.8824M23.9412 163.667V184M1 163.667V184M46.8824 163.667H69.8235M46.8824 163.667V184M69.8235 163.667H92.7647M69.8235 163.667V184M92.7647 163.667H115.706M92.7647 163.667V184M115.706 163.667H138.647M115.706 163.667V184M138.647 163.667H161.588M138.647 163.667V184M161.588 163.667H184.529M161.588 163.667V184M184.529 163.667H207.471M184.529 163.667V184M207.471 163.667H230.412M207.471 163.667V184M230.412 163.667H253.353M230.412 163.667V184M253.353 163.667H276.294M253.353 163.667V184M276.294 163.667H299.235M276.294 163.667V184M299.235 163.667H322.176M299.235 163.667V184M322.176 163.667H345.118M322.176 163.667V184M345.118 163.667H368.059M345.118 163.667V184M368.059 163.667H391M368.059 163.667V184M391 163.667V184M23.9412 184H1M23.9412 184H46.8824M23.9412 184V204.333M1 184V204.333M46.8824 184H69.8235M46.8824 184V204.333M69.8235 184H92.7647M69.8235 184V204.333M92.7647 184H115.706M92.7647 184V204.333M115.706 184H138.647M115.706 184V204.333M138.647 184H161.588M138.647 184V204.333M161.588 184H184.529M161.588 184V204.333M184.529 184H207.471M184.529 184V204.333M207.471 184H230.412M207.471 184V204.333M230.412 184H253.353M230.412 184V204.333M253.353 184H276.294M253.353 184V204.333M276.294 184H299.235M276.294 184V204.333M299.235 184H322.176M299.235 184V204.333M322.176 184H345.118M322.176 184V204.333M345.118 184H368.059M345.118 184V204.333M368.059 184H391M368.059 184V204.333M391 184V204.333M23.9412 204.333H1M23.9412 204.333H46.8824M23.9412 204.333V224.667M1 204.333V224.667M46.8824 204.333H69.8235M46.8824 204.333V224.667M69.8235 204.333H92.7647M69.8235 204.333V224.667M92.7647 204.333H115.706M92.7647 204.333V224.667M115.706 204.333H138.647M115.706 204.333V224.667M138.647 204.333H161.588M138.647 204.333V224.667M161.588 204.333H184.529M161.588 204.333V224.667M184.529 204.333H207.471M184.529 204.333V224.667M207.471 204.333H230.412M207.471 204.333V224.667M230.412 204.333H253.353M230.412 204.333V224.667M253.353 204.333H276.294M253.353 204.333V224.667M276.294 204.333H299.235M276.294 204.333V224.667M299.235 204.333H322.176M299.235 204.333V224.667M322.176 204.333H345.118M322.176 204.333V224.667M345.118 204.333H368.059M345.118 204.333V224.667M368.059 204.333H391M368.059 204.333V224.667M391 204.333V224.667M23.9412 224.667H1M23.9412 224.667H46.8824M23.9412 224.667V245M1 224.667V245H23.9412M46.8824 224.667H69.8235M46.8824 224.667V245M69.8235 224.667H92.7647M69.8235 224.667V245M92.7647 224.667H115.706M92.7647 224.667V245M115.706 224.667H138.647M115.706 224.667V245M138.647 224.667H161.588M138.647 224.667V245M161.588 224.667H184.529M161.588 224.667V245M184.529 224.667H207.471M184.529 224.667V245M207.471 224.667H230.412M207.471 224.667V245M230.412 224.667H253.353M230.412 224.667V245M253.353 224.667H276.294M253.353 224.667V245M276.294 224.667H299.235M276.294 224.667V245M299.235 224.667H322.176M299.235 224.667V245M322.176 224.667H345.118M322.176 224.667V245M345.118 224.667H368.059M345.118 224.667V245M368.059 224.667H391M368.059 224.667V245M391 224.667V245H368.059M23.9412 245H46.8824M46.8824 245H69.8235M69.8235 245H92.7647M92.7647 245H115.706M115.706 245H138.647M138.647 245H161.588M161.588 245H184.529M184.529 245H207.471M207.471 245H230.412M230.412 245H253.353M253.353 245H276.294M276.294 245H299.235M299.235 245H322.176M322.176 245H345.118M345.118 245H368.059" stroke="url(#paint0_radial_0_55)" stroke-width="2"/>
<defs>
<radialGradient id="paint0_radial_0_55" cx="0" cy="0" r="1" gradientUnits="userSpaceOnUse" gradientTransform="translate(196.131 1) rotate(90) scale(130.133 217.722)">
<stop stop-color="#C0C0C0" stop-opacity="0"/>
<stop offset="0.5" stop-color="#C0C0C0" stop-opacity="0.1"/>
<stop offset="1" stop-color="#C0C0C0" stop-opacity="0"/>
</radialGradient>
</defs>
</svg>
