<svg preserveAspectRatio="none" width="100%" height="100%" overflow="visible" style="display: block;" viewBox="0 0 837 524" fill="none" xmlns="http://www.w3.org/2000/svg">
<path id="Vector" d="M50.1176 1H1V44.5M50.1176 1V44.5M50.1176 1H99.2353M50.1176 44.5H1M50.1176 44.5H99.2353M50.1176 44.5V88M1 44.5V88M99.2353 1V44.5M99.2353 1H148.353M99.2353 44.5H148.353M99.2353 44.5V88M148.353 1V44.5M148.353 1H197.471M148.353 44.5H197.471M148.353 44.5V88M197.471 1V44.5M197.471 1H246.588M197.471 44.5H246.588M197.471 44.5V88M246.588 1V44.5M246.588 1H295.706M246.588 44.5H295.706M246.588 44.5V88M295.706 1V44.5M295.706 1H344.824M295.706 44.5H344.824M295.706 44.5V88M344.824 1V44.5M344.824 1H393.941M344.824 44.5H393.941M344.824 44.5V88M393.941 1V44.5M393.941 1H443.059M393.941 44.5H443.059M393.941 44.5V88M443.059 1V44.5M443.059 1H492.176M443.059 44.5H492.176M443.059 44.5V88M492.176 1V44.5M492.176 1H541.294M492.176 44.5H541.294M492.176 44.5V88M541.294 1V44.5M541.294 1H590.412M541.294 44.5H590.412M541.294 44.5V88M590.412 1V44.5M590.412 1H639.529M590.412 44.5H639.529M590.412 44.5V88M639.529 1V44.5M639.529 1H688.647M639.529 44.5H688.647M639.529 44.5V88M688.647 1V44.5M688.647 1H737.765M688.647 44.5H737.765M688.647 44.5V88M737.765 1V44.5M737.765 1H786.882M737.765 44.5H786.882M737.765 44.5V88M786.882 1V44.5M786.882 1H836V44.5M786.882 44.5H836M786.882 44.5V88M836 44.5V88M50.1176 88H1M50.1176 88H99.2353M50.1176 88V131.5M1 88V131.5M99.2353 88H148.353M99.2353 88V131.5M148.353 88H197.471M148.353 88V131.5M197.471 88H246.588M197.471 88V131.5M246.588 88H295.706M246.588 88V131.5M295.706 88H344.824M295.706 88V131.5M344.824 88H393.941M344.824 88V131.5M393.941 88H443.059M393.941 88V131.5M443.059 88H492.176M443.059 88V131.5M492.176 88H541.294M492.176 88V131.5M541.294 88H590.412M541.294 88V131.5M590.412 88H639.529M590.412 88V131.5M639.529 88H688.647M639.529 88V131.5M688.647 88H737.765M688.647 88V131.5M737.765 88H786.882M737.765 88V131.5M786.882 88H836M786.882 88V131.5M836 88V131.5M50.1176 131.5H1M50.1176 131.5H99.2353M50.1176 131.5V175M1 131.5V175M99.2353 131.5H148.353M99.2353 131.5V175M148.353 131.5H197.471M148.353 131.5V175M197.471 131.5H246.588M197.471 131.5V175M246.588 131.5H295.706M246.588 131.5V175M295.706 131.5H344.824M295.706 131.5V175M344.824 131.5H393.941M344.824 131.5V175M393.941 131.5H443.059M393.941 131.5V175M443.059 131.5H492.176M443.059 131.5V175M492.176 131.5H541.294M492.176 131.5V175M541.294 131.5H590.412M541.294 131.5V175M590.412 131.5H639.529M590.412 131.5V175M639.529 131.5H688.647M639.529 131.5V175M688.647 131.5H737.765M688.647 131.5V175M737.765 131.5H786.882M737.765 131.5V175M786.882 131.5H836M786.882 131.5V175M836 131.5V175M50.1176 175H1M50.1176 175H99.2353M50.1176 175V218.5M1 175V218.5M99.2353 175H148.353M99.2353 175V218.5M148.353 175H197.471M148.353 175V218.5M197.471 175H246.588M197.471 175V218.5M246.588 175H295.706M246.588 175V218.5M295.706 175H344.824M295.706 175V218.5M344.824 175H393.941M344.824 175V218.5M393.941 175H443.059M393.941 175V218.5M443.059 175H492.176M443.059 175V218.5M492.176 175H541.294M492.176 175V218.5M541.294 175H590.412M541.294 175V218.5M590.412 175H639.529M590.412 175V218.5M639.529 175H688.647M639.529 175V218.5M688.647 175H737.765M688.647 175V218.5M737.765 175H786.882M737.765 175V218.5M786.882 175H836M786.882 175V218.5M836 175V218.5M50.1176 218.5H1M50.1176 218.5H99.2353M50.1176 218.5V262M1 218.5V262M99.2353 218.5H148.353M99.2353 218.5V262M148.353 218.5H197.471M148.353 218.5V262M197.471 218.5H246.588M197.471 218.5V262M246.588 218.5H295.706M246.588 218.5V262M295.706 218.5H344.824M295.706 218.5V262M344.824 218.5H393.941M344.824 218.5V262M393.941 218.5H443.059M393.941 218.5V262M443.059 218.5H492.176M443.059 218.5V262M492.176 218.5H541.294M492.176 218.5V262M541.294 218.5H590.412M541.294 218.5V262M590.412 218.5H639.529M590.412 218.5V262M639.529 218.5H688.647M639.529 218.5V262M688.647 218.5H737.765M688.647 218.5V262M737.765 218.5H786.882M737.765 218.5V262M786.882 218.5H836M786.882 218.5V262M836 218.5V262M50.1176 262H1M50.1176 262H99.2353M50.1176 262V305.5M1 262V305.5M99.2353 262H148.353M99.2353 262V305.5M148.353 262H197.471M148.353 262V305.5M197.471 262H246.588M197.471 262V305.5M246.588 262H295.706M246.588 262V305.5M295.706 262H344.824M295.706 262V305.5M344.824 262H393.941M344.824 262V305.5M393.941 262H443.059M393.941 262V305.5M443.059 262H492.176M443.059 262V305.5M492.176 262H541.294M492.176 262V305.5M541.294 262H590.412M541.294 262V305.5M590.412 262H639.529M590.412 262V305.5M639.529 262H688.647M639.529 262V305.5M688.647 262H737.765M688.647 262V305.5M737.765 262H786.882M737.765 262V305.5M786.882 262H836M786.882 262V305.5M836 262V305.5M50.1176 305.5H1M50.1176 305.5H99.2353M50.1176 305.5V349M1 305.5V349M99.2353 305.5H148.353M99.2353 305.5V349M148.353 305.5H197.471M148.353 305.5V349M197.471 305.5H246.588M197.471 305.5V349M246.588 305.5H295.706M246.588 305.5V349M295.706 305.5H344.824M295.706 305.5V349M344.824 305.5H393.941M344.824 305.5V349M393.941 305.5H443.059M393.941 305.5V349M443.059 305.5H492.176M443.059 305.5V349M492.176 305.5H541.294M492.176 305.5V349M541.294 305.5H590.412M541.294 305.5V349M590.412 305.5H639.529M590.412 305.5V349M639.529 305.5H688.647M639.529 305.5V349M688.647 305.5H737.765M688.647 305.5V349M737.765 305.5H786.882M737.765 305.5V349M786.882 305.5H836M786.882 305.5V349M836 305.5V349M50.1176 349H1M50.1176 349H99.2353M50.1176 349V392.5M1 349V392.5M99.2353 349H148.353M99.2353 349V392.5M148.353 349H197.471M148.353 349V392.5M197.471 349H246.588M197.471 349V392.5M246.588 349H295.706M246.588 349V392.5M295.706 349H344.824M295.706 349V392.5M344.824 349H393.941M344.824 349V392.5M393.941 349H443.059M393.941 349V392.5M443.059 349H492.176M443.059 349V392.5M492.176 349H541.294M492.176 349V392.5M541.294 349H590.412M541.294 349V392.5M590.412 349H639.529M590.412 349V392.5M639.529 349H688.647M639.529 349V392.5M688.647 349H737.765M688.647 349V392.5M737.765 349H786.882M737.765 349V392.5M786.882 349H836M786.882 349V392.5M836 349V392.5M50.1176 392.5H1M50.1176 392.5H99.2353M50.1176 392.5V436M1 392.5V436M99.2353 392.5H148.353M99.2353 392.5V436M148.353 392.5H197.471M148.353 392.5V436M197.471 392.5H246.588M197.471 392.5V436M246.588 392.5H295.706M246.588 392.5V436M295.706 392.5H344.824M295.706 392.5V436M344.824 392.5H393.941M344.824 392.5V436M393.941 392.5H443.059M393.941 392.5V436M443.059 392.5H492.176M443.059 392.5V436M492.176 392.5H541.294M492.176 392.5V436M541.294 392.5H590.412M541.294 392.5V436M590.412 392.5H639.529M590.412 392.5V436M639.529 392.5H688.647M639.529 392.5V436M688.647 392.5H737.765M688.647 392.5V436M737.765 392.5H786.882M737.765 392.5V436M786.882 392.5H836M786.882 392.5V436M836 392.5V436M50.1176 436H1M50.1176 436H99.2353M50.1176 436V479.5M1 436V479.5M99.2353 436H148.353M99.2353 436V479.5M148.353 436H197.471M148.353 436V479.5M197.471 436H246.588M197.471 436V479.5M246.588 436H295.706M246.588 436V479.5M295.706 436H344.824M295.706 436V479.5M344.824 436H393.941M344.824 436V479.5M393.941 436H443.059M393.941 436V479.5M443.059 436H492.176M443.059 436V479.5M492.176 436H541.294M492.176 436V479.5M541.294 436H590.412M541.294 436V479.5M590.412 436H639.529M590.412 436V479.5M639.529 436H688.647M639.529 436V479.5M688.647 436H737.765M688.647 436V479.5M737.765 436H786.882M737.765 436V479.5M786.882 436H836M786.882 436V479.5M836 436V479.5M50.1176 479.5H1M50.1176 479.5H99.2353M50.1176 479.5V523M1 479.5V523H50.1176M99.2353 479.5H148.353M99.2353 479.5V523M148.353 479.5H197.471M148.353 479.5V523M197.471 479.5H246.588M197.471 479.5V523M246.588 479.5H295.706M246.588 479.5V523M295.706 479.5H344.824M295.706 479.5V523M344.824 479.5H393.941M344.824 479.5V523M393.941 479.5H443.059M393.941 479.5V523M443.059 479.5H492.176M443.059 479.5V523M492.176 479.5H541.294M492.176 479.5V523M541.294 479.5H590.412M541.294 479.5V523M590.412 479.5H639.529M590.412 479.5V523M639.529 479.5H688.647M639.529 479.5V523M688.647 479.5H737.765M688.647 479.5V523M737.765 479.5H786.882M737.765 479.5V523M786.882 479.5H836M786.882 479.5V523M836 479.5V523H786.882M50.1176 523H99.2353M99.2353 523H148.353M148.353 523H197.471M197.471 523H246.588M246.588 523H295.706M295.706 523H344.824M344.824 523H393.941M393.941 523H443.059M443.059 523H492.176M492.176 523H541.294M541.294 523H590.412M590.412 523H639.529M639.529 523H688.647M688.647 523H737.765M737.765 523H786.882" stroke="url(#paint0_radial_0_42)" stroke-width="2"/>
<defs>
<radialGradient id="paint0_radial_0_42" cx="0" cy="0" r="1" gradientUnits="userSpaceOnUse" gradientTransform="translate(418.78 1.00001) rotate(90) scale(278.4 466.148)">
<stop stop-color="#C0C0C0" stop-opacity="0"/>
<stop offset="0.5" stop-color="#C0C0C0" stop-opacity="0.1"/>
<stop offset="1" stop-color="#C0C0C0" stop-opacity="0"/>
</radialGradient>
</defs>
</svg>
