<svg preserveAspectRatio="none" width="100%" height="100%" overflow="visible" style="display: block;" viewBox="0 0 19.5 19.5" fill="none" xmlns="http://www.w3.org/2000/svg">
<path id="Vector" d="M9.75 0C7.82164 0 5.93657 0.571828 4.33319 1.64317C2.72982 2.71452 1.48013 4.23726 0.742179 6.01884C0.00422452 7.80042 -0.188858 9.76082 0.187348 11.6521C0.563554 13.5434 1.49215 15.2807 2.85571 16.6443C4.21928 18.0079 5.95656 18.9365 7.84787 19.3127C9.73919 19.6889 11.6996 19.4958 13.4812 18.7578C15.2627 18.0199 16.7855 16.7702 17.8568 15.1668C18.9282 13.5634 19.5 11.6784 19.5 9.75C19.4973 7.16498 18.4692 4.68661 16.6413 2.85872C14.8134 1.03084 12.335 0.00272983 9.75 0ZM17.9672 9.01688C17.7284 9.00563 17.4894 9 17.25 9C15.8588 9.00039 14.4737 9.18448 13.1306 9.5475C12.8032 8.57585 12.3809 7.63883 11.8697 6.75C13.2028 5.94611 14.4096 4.94938 15.4509 3.79219C16.8959 5.17075 17.7902 7.02769 17.9672 9.01688ZM14.2763 2.85562C13.3395 3.88498 12.2567 4.7713 11.0625 5.48625C10.0624 4.07852 8.83908 2.84352 7.44094 1.83C8.58791 1.49517 9.79391 1.41347 10.9756 1.59056C12.1572 1.76764 13.2863 2.19928 14.2847 2.85562H14.2763ZM5.77969 2.52C7.31212 3.48506 8.64812 4.73135 9.71719 6.19312C7.84615 7.05548 5.81021 7.50138 3.75 7.5C3.11416 7.49967 2.47903 7.45739 1.84875 7.37344C2.4759 5.30485 3.88652 3.5632 5.77969 2.52ZM1.5 9.75C1.49997 9.44807 1.51655 9.14636 1.54969 8.84625C2.27866 8.9486 3.01388 8.99997 3.75 9C6.1027 9.00222 8.42595 8.47683 10.5488 7.4625C11.0164 8.27015 11.403 9.12211 11.7028 10.0059C10.9061 10.3052 10.1351 10.6689 9.3975 11.0934C7.33976 12.2822 5.57537 13.9181 4.23469 15.8803C3.37375 15.108 2.68524 14.1629 2.21405 13.1066C1.74285 12.0503 1.49955 10.9066 1.5 9.75ZM5.4375 16.7812C6.65472 14.981 8.26531 13.481 10.1475 12.3947C10.7768 12.0315 11.4335 11.7181 12.1116 11.4572C12.3436 12.487 12.4609 13.5394 12.4613 14.595C12.4618 15.6213 12.3521 16.6446 12.1341 17.6475C11.02 17.9841 9.84722 18.0809 8.69301 17.9316C7.5388 17.7823 6.42929 17.3902 5.4375 16.7812ZM13.7869 16.9434C13.9026 16.1675 13.9609 15.3842 13.9613 14.5997C13.9611 13.3855 13.8211 12.1753 13.5441 10.9931C14.7524 10.667 15.9984 10.5012 17.25 10.5C17.4875 10.5 17.7253 10.5059 17.9634 10.5178C17.8379 11.8464 17.3924 13.1248 16.665 14.2436C15.9377 15.3625 14.9501 16.2885 13.7869 16.9425V16.9434Z" fill="var(--fill-0, #252525)"/>
</svg>
